<?xml version="1.0" encoding="UTF-8" standalone="no"?>
<!-- Generator: Adobe Illustrator 26.0.3, SVG Export Plug-In . SVG Version: 6.00 Build 0)  -->

<svg
   version="1.0"
   id="katman_1"
   x="0px"
   y="0px"
   viewBox="0 0 268.17499 86.900002"
   xml:space="preserve"
   width="268.17499"
   height="86.900002"
   xmlns="http://www.w3.org/2000/svg"
   xmlns:svg="http://www.w3.org/2000/svg">
<style
   type="text/css"
   id="style2">
	.st0{fill:#010202;filter:url(#Adobe_OpacityMaskFilter);stroke:#FFFFFF;stroke-width:19.0518;stroke-miterlimit:3.964;}
	.st1{mask:url(#mask-path-0.714075822092155_00000159444839320873470970000012753669590367924401_);}
	.st2{fill:#010202;}
</style>
<defs
   id="defs7"><filter
     id="Adobe_OpacityMaskFilter"
     filterUnits="userSpaceOnUse"
     x="165.89999"
     y="182"
     width="268.5"
     height="86.900002">
		<feColorMatrix
   type="matrix"
   values="1 0 0 0 0  0 1 0 0 0  0 0 1 0 0  0 0 0 1 0"
   id="feColorMatrix4" />
	</filter></defs>
<mask
   maskUnits="userSpaceOnUse"
   x="165.9"
   y="182"
   width="268.5"
   height="86.9"
   id="mask-path-0.714075822092155_00000159444839320873470970000012753669590367924401_">
	<path
   class="st0"
   d="M 433.1,251.8 C 345.5,286.1 231.2,245.4 172.7,187 v 0 l 47,3.8 -47,-3.8 30.5,61"
   id="path9" />
</mask>
<g
   class="st1"
   mask="url(#mask-path-0.714075822092155_00000159444839320873470970000012753669590367924401_)"
   id="g168"
   transform="translate(-166.2,-182)">
	<path
   class="st2"
   d="m 434,253.2 c 0.6,0 0.3,-1 0.3,-1.2 -1,0.3 -0.3,1.5 -0.3,1.2 z"
   id="path12" />
	<path
   class="st2"
   d="m 424.3,257 0.1,-0.4 -1.3,1.3 z"
   id="path14" />
	<path
   class="st2"
   d="m 414.9,258.4 c 1.1,1.7 3.4,-0.8 5.1,-0.4 l 0.3,0.4 0.6,-1.5 c -2,0.4 -4.5,1.7 -6,1.5 z"
   id="path16" />
	<path
   class="st2"
   d="m 409.4,255.2 c 0.4,0.7 -1,0.8 1.2,0 -0.1,0 -0.2,-0.1 -0.2,-0.2 -0.4,0.1 -0.7,0.2 -1,0.2 z"
   id="path18" />
	<path
   class="st2"
   d="m 410.3,255.1 c 1,-0.2 -0.7,-0.5 0,0 z"
   id="path20" />
	<path
   class="st2"
   d="m 405.9,256.2 1.2,-0.8 c -0.3,-0.4 -1.5,-0.3 -1.1,-0.7 -1.3,0.5 -1,0.9 -0.1,1.5 z"
   id="path22" />
	<path
   class="st2"
   d="m 404.8,257.6 0.6,-0.4 c -0.1,-0.1 -0.3,-0.1 -0.6,0.4 z"
   id="path24" />
	<path
   class="st2"
   d="m 406.8,256.5 -1.3,0.7 c 0.2,0.3 0.3,0.9 0.6,-0.3 0,0.7 0.2,0.1 0.7,-0.4 z"
   id="path26" />
	<path
   class="st2"
   d="m 407.7,256.7 c 0.8,0.3 1.8,0.4 0.5,1.2 2.4,-0.6 1.9,-1.9 -0.5,-1.2 z"
   id="path28" />
	<path
   class="st2"
   d="m 414.7,260.3 1.1,0.4 0.8,-0.7 c -0.4,0.3 -2,-0.2 -1.9,0.3 z"
   id="path30" />
	<path
   class="st2"
   d="m 397.5,256.4 c 0,0.4 0.6,1 0.8,1.4 l 0.9,-0.6 c -0.7,-0.1 -1.6,-0.2 -1.7,-0.8 z"
   id="path32" />
	<path
   class="st2"
   d="m 398.3,257.8 -1.3,0.8 c 1.2,0 1.5,-0.3 1.3,-0.8 z"
   id="path34" />
	<path
   class="st2"
   d="m 404.9,259.7 2.1,-1.7 -2.6,1.8 z"
   id="path36" />
	<path
   class="st2"
   d="m 392.3,257 0.7,-1 -1.2,1.5 z"
   id="path38" />
	<path
   class="st2"
   d="m 388.9,257.5 c 0.5,-0.8 -0.9,-1.2 -0.3,-1.7 -0.9,0.3 -1.7,0.8 -2.4,1.5 0.4,-0.2 0.9,-0.3 1.4,-0.2 0.4,0.1 0.9,0.2 1.3,0.4 z"
   id="path40" />
	<path
   class="st2"
   d="m 385,258.3 c 0.4,-0.3 0.8,-0.6 1.2,-0.9 -0.5,0.2 -0.9,0.5 -1.2,0.9 z"
   id="path42" />
	<path
   class="st2"
   d="m 394.6,258.8 c -0.1,-0.2 -0.3,-0.4 -0.5,-0.6 -0.2,-0.2 -0.5,-0.3 -0.7,-0.3 l 0.7,1 z"
   id="path44" />
	<path
   class="st2"
   d="m 394.7,258.8 h -0.1 c 0,0 0.1,0.1 0.1,0 z"
   id="path46" />
	<path
   class="st2"
   d="m 400.9,259.2 c -0.8,0.7 -2.4,1.7 -0.6,2.3 0.5,-0.8 -0.6,-1.2 0.6,-2.3 z"
   id="path48" />
	<path
   class="st2"
   d="m 395.6,260 h 1.5 c 0,-0.3 -0.4,-0.7 0,-1 z"
   id="path50" />
	<path
   class="st2"
   d="m 394.9,260.5 0.7,-0.4 H 395 Z"
   id="path52" />
	<path
   class="st2"
   d="m 387.6,259.1 c -0.6,0.4 -1.4,0.7 -2.1,0.7 0.8,0.2 1.7,0.2 2.5,0.2 0.3,-0.4 0.5,-1 -0.4,-0.9 z"
   id="path54" />
	<path
   class="st2"
   d="m 390.8,259.1 h -0.1 c 0,0 0.1,0.2 0.1,0 z"
   id="path56" />
	<path
   class="st2"
   d="m 377.6,260.2 0.1,0.2 v -0.2 z"
   id="path58" />
	<path
   class="st2"
   d="m 388.3,260.2 c 0.2,0.1 0.5,0 0.8,0 0.2,-0.1 0.4,-0.2 0.6,-0.5 -0.5,0.2 -1,0.3 -1.5,0.3 -0.1,0.1 -0.1,0.2 0.1,0.2 z"
   id="path60" />
	<path
   class="st2"
   d="m 382.8,258.9 c 0.4,0.2 0.7,0.4 1.1,0.5 -0.3,-0.3 -0.9,-0.8 -1.1,-0.5 z"
   id="path62" />
	<path
   class="st2"
   d="m 390.4,258.9 c -0.1,-0.3 -0.1,-0.1 0,0 z"
   id="path64" />
	<path
   class="st2"
   d="m 390.4,258.9 c -0.3,0.2 -0.5,0.5 -0.8,0.7 0.4,-0.1 0.7,-0.3 1,-0.5 z"
   id="path66" />
	<path
   class="st2"
   d="m 375.3,267.2 c 0.1,-0.3 0.3,-0.6 0.6,-0.9 0.3,-0.3 0.6,-0.4 0.9,-0.5 0.3,-0.1 0.7,-0.1 1,0 0.3,0.1 0.7,0.2 0.9,0.4 1.4,-0.8 0.4,-4.1 -1,-5.9 0,0.5 0,0.9 -1.5,1.5 0.5,0.5 3.4,1.2 2.1,2.1 -2,0.6 -1.7,-0.3 -2.5,-0.8 0.9,1.2 -2.5,1.9 -2.1,3.7 l 1.8,-0.7 c 0.1,0.4 -0.6,0.9 -0.2,1.1 z"
   id="path68" />
	<path
   class="st2"
   d="m 380.7,260.4 0.6,-0.1 c -0.8,-0.3 -1.5,-0.7 -2.2,-1.3 -1,0.5 -1.2,0.9 -1.3,1.2 h 3 z"
   id="path70" />
	<path
   class="st2"
   d="m 383.9,260.1 c -0.4,1.1 -1.9,1.7 -0.9,2.8 1.8,-0.2 1.2,-1 2.3,-1.5 -2.9,0.5 0.8,-0.6 -1.3,-1.1 0.5,-0.2 1,-0.3 1.5,-0.4 -0.5,-0.1 -1,-0.2 -1.5,-0.4 0.1,0 0.2,0.2 0,0 -0.2,-0.2 0,0 0,0 l -0.1,0.4 c -0.8,-0.2 0,-0.3 0.1,-0.4 v -0.2 l -2.8,0.8 c 0.9,0.1 1.8,0.1 2.7,0 z"
   id="path72" />
	<path
   class="st2"
   d="m 399.1,264.1 c 0,0 -0.1,-0.1 0,0 -0.1,-0.1 -0.1,-0.2 -0.1,-0.2 -0.2,0.1 -0.3,0.2 0.1,0.2 z"
   id="path74" />
	<path
   class="st2"
   d="m 397.8,263.7 c 0.2,-0.2 0.3,-0.6 1,-0.6 0.7,0 0,0.5 0.2,0.9 0.4,-0.3 1.3,-1 0,-1.3 l -0.2,0.2 c -1.2,-0.2 -2.9,-1.4 -2.7,-1.5 0.4,0.7 0.9,1.6 1.7,2.3 z"
   id="path76" />
	<path
   class="st2"
   d="m 390.8,262.3 -2.4,0.8 1.3,0.8 v -0.6 c 1.1,0.1 0.9,-0.6 1.1,-1 z"
   id="path78" />
	<path
   class="st2"
   d="m 377.3,259.7 0.3,-1.2 -1.3,1.7 z"
   id="path80" />
	<path
   class="st2"
   d="m 374.2,259.9 0.1,-1 -0.8,0.6 z"
   id="path82" />
	<path
   class="st2"
   d="m 200.1,216.8 c -0.3,0 -0.5,-0.2 -0.8,-0.3 0.3,0.2 0.5,0.3 0.8,0.3 z"
   id="path84" />
	<path
   class="st2"
   d="m 204.4,220.2 0.4,-0.3 c -0.3,0.1 -0.5,0.2 -0.4,0.3 z"
   id="path86" />
	<path
   class="st2"
   d="m 297.7,250.4 c -0.7,-1.1 -1.4,-2.9 -1.6,-1.8 v 1.1 c 0.6,0 1.2,0.3 1.6,0.7 z"
   id="path88" />
	<path
   class="st2"
   d="m 245.2,237.4 0.2,0.4 1.1,-0.7 z"
   id="path90" />
	<path
   class="st2"
   d="m 242.6,241.2 -1,-1.2 c 0.3,0.5 0.6,0.9 1,1.2 z"
   id="path92" />
	<path
   class="st2"
   d="m 169.8,187.1 -3.1,-1.9 c 1.5,1.7 1.9,1.3 3.1,1.9 z"
   id="path94" />
	<path
   class="st2"
   d="m 341.9,258.8 c -0.7,-0.4 -1.4,-0.7 -2.2,-0.9 1.1,0.7 1.8,1.8 2.2,0.9 z"
   id="path96" />
	<path
   class="st2"
   d="m 209,208.9 c -0.5,0 -0.7,0 -0.9,0.2 0.5,0.1 0.8,0.1 0.9,-0.2 z"
   id="path98" />
	<path
   class="st2"
   d="m 337.2,257.6 c 0.1,0.1 0.3,0.2 0.4,0.3 0.7,-0.1 1.4,-0.1 2.1,0 -0.3,-0.3 -0.8,-0.5 -1.2,-0.6 -0.4,0 -0.9,0.1 -1.3,0.3 z"
   id="path100" />
	<path
   class="st2"
   d="m 194.6,206.1 v 0.3 c 0,0 0.1,-0.2 0,-0.3 z"
   id="path102" />
	<path
   class="st2"
   d="m 194.5,238.6 c -0.1,-0.4 -0.2,-0.7 -0.3,-1.1 0,0.4 0.1,0.8 0.3,1.1 z"
   id="path104" />
	<path
   class="st2"
   d="m 364.7,263.7 c -0.1,0.1 -0.2,0.1 -0.2,0.2 0,0.1 -0.1,0.2 -0.1,0.3 0,-0.2 0.1,-0.4 0.3,-0.5 z"
   id="path106" />
	<path
   class="st2"
   d="m 329.6,263.7 c 0.1,0.1 0.1,0 0,0 z"
   id="path108" />
	<path
   class="st2"
   d="m 362.5,259.8 c -0.3,-0.2 -0.5,-0.3 -0.8,-0.4 0.3,0.2 0.5,0.3 0.8,0.4 z"
   id="path110" />
	<path
   class="st2"
   d="m 362.4,259.2 h 0.6 c 0.1,0 -0.1,-0.1 -0.6,0 z"
   id="path112" />
	<path
   class="st2"
   d="m 360.6,259.3 c 0.4,0 0.7,0 1.1,0.2 0,0 -0.2,-0.2 -0.2,-0.2 0.1,-0.1 -0.4,0 -0.9,0 z"
   id="path114" />
	<path
   class="st2"
   d="m 204.9,194 h -0.2 c -0.7,0.4 -0.3,0.3 0.2,0 z"
   id="path116" />
	<path
   class="st2"
   d="m 274.8,255.6 c 1.4,-0.9 2,-0.6 2.5,0 l 0.3,-3.3 z"
   id="path118" />
	<path
   class="st2"
   d="m 188.2,206.5 c 0.3,0.8 0.7,1.6 1.1,2.5 -4,-1.7 -5.7,-4.1 -4.9,-1.4 1.9,-0.5 4.1,1.5 6.2,3.6 0.6,0.5 1.1,1 1.6,1.5 0.3,0.3 0.7,0.5 1.1,0.6 0.3,0.2 0.7,0.2 1,0.1 0.3,-0.1 0.7,-0.2 0.9,-0.5 l 0.4,1.3 c -0.2,-0.3 -0.4,0 -0.6,-0.4 0.7,2.8 2.9,-0.8 4.9,1.5 0.6,0.9 0.9,1.7 0,1.6 l 2.4,0.7 c 0.5,0.5 0,0.8 -0.5,0.4 l 2.9,1.9 c 0.9,-0.1 1.8,-0.1 2.7,0 0.4,0.9 -0.6,0 -0.6,0.5 l 2.1,0.4 c 0.1,1.2 -1.7,1 -2.7,0 -0.6,3.8 1.8,0.2 3.9,4.1 l -1.8,-0.7 c -0.2,2.3 1.4,2.5 2.5,4.8 0,-0.8 -1.7,-4.9 0.5,-4.4 0.2,0.4 0.5,0.7 0.9,0.9 0.4,0.2 0.8,0.3 1.3,0.3 -0.7,1 0.4,1.3 1.7,2 l -1,1.3 c 1.5,0.4 1.9,-0.4 3,-0.5 1.3,1 0.9,2.3 0.7,3.4 2.1,1.6 -0.5,-2.7 2.3,-1.3 1.7,1.4 3.8,2.3 6,2.3 1,1.2 -0.7,0.7 -0.5,1.4 l 1.8,-0.5 c 0.3,0.2 0,0.5 -0.2,0.6 1.2,0 0.9,-1.4 2.5,-0.9 1.2,-1.4 2,4 4.9,3.3 0.3,0.6 -0.7,0.8 -0.8,1.4 1.9,0.3 3.9,0.2 5.8,-0.2 l 1.4,1.9 c -0.9,-1.8 1.5,-2.2 3.6,-2.5 -0.2,-0.6 -0.4,-1.2 -0.6,-1.8 l 2.8,0.3 c 0.2,0.4 -0.3,0.8 -1,1.2 0.2,0 0.4,-0.1 0.6,-0.1 0.6,0.9 -0.2,1.6 -1.2,2.1 l -0.5,-1.3 c -1,0.6 -2.1,1.3 -2.4,2.3 0.3,-0.1 0.7,-0.1 1,0 -0.3,0.2 -0.5,0.4 -0.5,0.5 0,0.2 0.4,0 1,-0.2 l -0.2,1.9 0.5,-0.6 2.8,2.5 c 3.1,-0.6 6.3,-2.2 10.3,-1.3 -1.4,0.8 -1,1.9 -1.7,3.4 -0.4,-2 -3.2,-0.6 -5.1,-1.7 1,0.6 0.4,1.2 0,1.3 h 4.1 c -0.6,1.2 0.4,1.2 1.1,2.1 0.3,-2.5 3.3,-0.5 5.1,-0.7 -0.2,0.8 -0.9,1.5 -2.5,0.6 1.2,2.5 3.6,-1.8 4.9,0.5 -0.5,-0.2 -0.6,-0.4 -1,0 1.3,-0.3 3.5,1.2 2.7,1.7 l -0.4,-0.2 c 2.8,1.4 8.7,3.3 9.9,1.4 -0.5,0.9 -1,1.7 -1.6,2.5 l 7.6,-5.1 c -1.1,1.6 -0.8,6.4 -3.6,6.5 0.4,0.4 0.9,0.7 1.4,0.8 0.5,0.2 1.1,0.2 1.6,0.1 -0.4,-0.4 -0.3,-2.9 0.4,-2.9 1.1,2.5 0.9,1.5 2.5,3.9 -0.6,-0.6 1.2,-3.1 2.2,-2.5 -0.3,0.3 -0.8,2.7 -1.3,2.9 l 3.7,-1.7 c -0.8,0.2 -0.9,2.3 -0.5,3.2 0,-0.6 2.5,0.8 3.3,0.8 l -1,-1 c 3.1,1.4 4.3,-2.8 7.4,-1.8 -0.6,0.5 -2,3.2 -0.4,4 1.2,-1.2 5.1,-5.8 8.1,-6.3 l 0.3,0.9 2.3,-0.4 c -2.8,2.6 -5.9,4.8 -9.2,6.6 1,1 0,1 1.9,1.5 0.5,0.9 -1.3,0.9 -1.9,0.8 1.4,0.6 2.8,1.1 4.2,1.6 0.2,-1.7 3.7,-0.9 3.8,-2.3 l -5.1,0.6 c 0.6,-1.2 1.6,-2.2 2.8,-2.8 1.2,-0.6 2.6,-0.7 3.9,-0.3 0.6,0.9 -1.2,2.8 -1.3,3.4 0.5,-0.5 3.1,-0.5 3.3,0 l -1.5,0.6 c 1.6,1 3.2,-1.7 4.9,0.4 0.7,0.3 1.7,2.5 2,1.6 -0.6,-3.2 -0.2,-6.4 1.1,-9.4 1.4,1 2.7,2.2 3.9,3.6 0.9,1.7 -2.3,3.3 -1.6,4.8 0.1,-0.5 0.9,-0.9 1.2,-1 0.7,0.5 -0.6,1.4 1.1,1.4 0.5,-1.7 3.2,0.7 1,-1.3 1.6,-0.2 1.6,0.6 3.5,0.8 -0.4,-1.2 2.2,-3.5 3.8,-3.8 -0.1,0.5 0,0.9 0.3,1.3 3.1,0.6 4.8,1.5 7.7,2 0.2,0.5 1.6,1.1 0.9,1.8 0.5,-0.5 1.2,-0.7 1.9,-0.8 1.6,1.7 -2.1,0 -0.9,2 0.2,-1 2.5,-1.1 3.9,-1.7 -0.3,-1.6 -3,-0.6 -4.4,0 0.2,-2.1 2.7,-4.1 5.9,-4.8 2.5,-0.3 0.9,1.5 1.4,1.2 4.6,0.7 4.2,-3.5 7.9,-1.7 1.4,1.4 0,2.7 0.2,3.7 -2.1,0.4 -3,-1.1 -4.4,-1.1 l 1.7,0.8 c -0.4,0.2 -0.9,0.4 -1.4,0.4 -0.5,0 -1,0 -1.4,-0.2 1.5,0.8 3.2,1.1 4.8,1.1 2.2,0 4.4,0.4 6.6,1 0.7,-0.4 1.8,-0.9 1.3,-1.4 l -1.1,0.2 c -1,-1.1 2.2,-1.4 0.8,-2 0.8,-0.6 1.6,-1 2.6,-1.2 0.9,-0.2 1.9,-0.2 2.8,-0.1 l 0.4,1.6 c 0,-0.5 -1.4,-1 -2,-0.5 0.9,-0.7 3.2,2.2 4.2,0.2 l -1.5,-1.1 c 1.5,-0.8 3.4,-2.5 5.2,-1.9 -0.8,-1.5 -0.4,0.2 -1.8,-1.6 1.1,2.2 -4.8,0 -2.9,2.3 -1.3,-2.1 -2.4,-0.9 -4.1,-2.8 0,0.5 0.6,1 -1,0.7 -0.1,0.2 -0.2,0.3 -0.4,0.4 0.3,0.2 0.6,0.5 0.8,0.8 -0.8,1.1 -3.3,1 -4.2,1.6 -0.9,-0.3 0.4,-0.6 0,-1.1 l -1.3,0.8 c 0,-1.1 -2.4,-2 -0.2,-2.5 l -2,-0.2 c -0.5,-0.4 -1.2,-0.6 -1.8,-0.7 -0.6,-0.1 -1.3,-0.1 -1.9,0.1 -0.9,-0.3 -2.5,1.1 -1.6,0.3 l -3.1,0.5 V 259 c -3,-0.4 -6.5,1.3 -9.7,-1.1 -1.3,0.3 -2.6,0.2 -3.8,-0.2 l -0.2,-1 c -1.4,0.2 -3.8,-1.5 -4.5,-0.6 -1,-2.8 -6.2,-1.5 -8.4,-2.4 l -0.3,1.2 c -1.7,-0.3 -3.4,-0.3 -5.1,-0.1 v 1.1 c -1.9,0.6 -4.2,-1.6 -6.8,-2.2 0.3,-0.4 0.9,0 1.3,0.3 -2.5,-3.3 -7.1,0.3 -9.4,-2.3 -0.3,0.1 -0.6,0.1 -0.9,0 -0.3,-0.1 -0.6,-0.3 -0.8,-0.5 0.1,0 0.1,0 0.2,0 -0.1,0 -0.2,0 -0.3,0 l -0.8,-0.9 c 0.2,0.3 0.4,0.6 0.6,0.8 -0.7,-0.1 -1.5,-0.2 -2.3,-0.2 v -1.3 h -0.2 c -0.6,-0.7 -0.8,0.4 -0.6,1.4 -0.4,0 -0.9,0.2 -1.3,0.4 0,-2.1 -2.3,0 -2.5,-2.3 -0.8,0.8 -4.3,-0.6 -5.4,1.3 0,-0.3 0,-0.5 0.3,-0.4 -0.3,-0.3 -0.7,-0.6 -1.2,-0.7 -0.4,-0.1 -0.9,-0.2 -1.4,-0.1 l 0.2,-1.6 -2.5,1.3 c -0.9,-1.3 -1.2,-2 0.4,-2.7 -3.4,0.7 -2.5,-0.2 -5.5,0.7 l 0.5,-0.9 c -0.9,-0.3 -2.7,0.5 -2.9,-0.5 -1.2,-2.5 -9.4,-3.8 -13.5,-7.5 -0.2,3.1 -1.7,-2.2 -2.8,-0.2 0,-0.8 -0.5,-1.4 0.5,-1.6 -2.7,-0.4 -3.2,-2.5 -5.7,-1.5 0,-0.8 0.9,-0.7 0.9,-1.2 -0.3,0 -1,0.2 -1.1,-0.3 -0.1,-0.5 0.6,-0.4 1.1,-0.5 -2.5,-1 -3.6,0.8 -4.7,2.5 -0.8,-1.4 -1.5,-1.6 -3,-0.8 -0.2,-0.8 -0.6,-1.8 1,-1.3 -0.8,-0.5 -4.8,-3.4 -5.6,-2 0,-0.5 -1.1,-0.7 -1.4,-0.6 -1.2,-0.8 -2.5,-1.5 -3.9,-2.1 l 0.4,0.5 c -1.7,1.3 -1.8,-0.4 -3.4,-1 l 0.1,-0.2 c -2.7,-3 -1.8,-0.2 -4.3,-3.5 l -0.4,1.2 c -1.6,2.1 -2.2,-3 -4.5,-3.3 l 0.3,1 c -1.5,0 -1,-4.9 -1.8,-5.7 0,-0.3 0.5,0 0.9,0 -1.8,-2.9 -1.2,1.1 -3.4,0.2 0,-1 1.7,-1.5 0.4,-2.5 -0.2,-1 -5.3,-0.3 -6.1,-2.9 0,0.8 0,1.6 -1.2,1.4 -1.5,-0.8 -2.1,-4.7 -4.5,-4 0,-0.1 -0.1,-0.2 -0.1,-0.3 0,-0.1 0,-0.2 0.1,-0.3 -1.4,-0.3 -3.8,-1.9 -5.1,-1.5 0.9,-2 -1,-2.9 -2.7,-3.6 -1.2,-0.4 -2.5,-1 -0.8,-1.9 l -1.7,-1.4 h 0.5 c -0.5,-0.9 -2.1,-1.2 -4,-1.7 0.2,-0.3 0.9,0 1.2,0 -0.3,-1.5 -0.2,-1.1 -5.5,-4 l 2.5,0.7 c -0.9,-0.5 -0.4,-0.8 0,-1 0.4,-0.3 0,-0.2 0.2,0 0.3,0.1 0.7,0.1 1,0.2 0.5,0 0.8,0 0.5,-0.4 0.3,0.2 0.6,0.4 0.9,0.6 -0.4,-0.7 2.5,0.2 3.9,0.7 1.4,0.5 1.9,0.6 0.6,-1.7 0.3,-0.4 0.6,-0.8 1,-1.1 -1.3,-0.2 -1.6,-0.7 -1.7,-1.3 0,-0.6 0.3,-1.1 -0.7,-1.5 0.8,0 1.6,0.2 2.3,0.7 0.6,0.4 0.8,0.9 0.2,1 l -0.3,-0.3 c 0.1,0.4 0.4,0.8 0.7,1.1 0.4,0.3 0.8,0.4 1.3,0.4 0.8,0.2 1.7,0.2 1.6,1 3.7,0.1 7.4,0.4 11.1,0.9 l -0.5,-9.5 h -8.6 l 0.7,1.9 h -2.2 c 0,0 -0.7,-1.4 0.8,-1.4 -0.8,-1 -2.5,0.9 -2.5,1.2 -3,-0.9 1.2,-2.1 0.3,-2.2 h -1.2 l 0.3,0.2 c -1,0.7 -1.2,1.5 -3,1.3 -1.1,-0.5 -0.5,-1.2 -0.9,-1.3 0,0 0,-0.2 -0.7,0 l -3.9,-0.7 c 0.6,0.6 1.1,1.2 1.7,1.7 -1.7,0.5 -3.7,-0.7 -1.7,1.4 -1,-0.9 -2.3,-1.6 -3.6,-2 -1.8,-0.7 -3.6,-1.2 -5.5,-1.7 -0.4,-0.1 -0.9,-0.2 -1.3,-0.3 h -1.1 -0.6 c -0.8,0 -1.5,-0.1 -2.3,-0.3 -0.2,0.5 -0.7,0.7 -1.3,0.7 -0.3,0 -0.7,0 -1,0 -0.2,0 -0.4,0 -0.6,0 -0.3,0 -0.5,0.1 -0.8,0.3 0.2,0 0.5,0 0.7,0.1 0.2,0.1 0.4,0.2 0.6,0.4 0.3,0.3 0.1,0.6 -0.6,1.3 -1.1,-1.3 -2.3,-0.7 -2.5,0.3 -0.3,1 0.2,1.8 -1.1,1.7 0.8,0 1.2,1.1 1.7,2.3 0.5,1.2 1.5,2.5 2.5,2.2 0.3,1.3 -1.7,-0.6 -2.4,0.2 0.8,1 1.5,2.2 2.2,3.3 1.2,2 2.3,4 3.2,6.1 0.6,1.1 1.1,2.3 1.8,3.4 l 1,1.8 0.5,0.8 0.4,0.5 c 0.4,-0.2 0.6,-1.2 1.7,-0.7 l -0.8,3.2 c 0.6,0.7 2.5,-0.5 2.1,1.6 0.2,-0.4 0.6,-0.9 1,-0.5 1.4,4.1 3,8.1 4.8,12.1 1.4,4.2 3,9.1 1.9,13.5 0.6,-1.3 0.8,-0.6 1.1,0.3 0,-0.6 1.1,-0.2 1.7,-0.5 -0.3,1.2 -0.6,2.5 -1.1,3.7 0.9,0.2 1,1.1 1,1.9 0.1,0.8 0,1.5 0.8,1.8 l -0.2,-1 c 0.9,0.7 2,0.3 3.1,-0.4 1.1,-0.7 2.2,-1.8 3.5,-1.7 -1.1,-0.9 -0.5,-2.3 0,-3.8 0.4,-0.8 0.4,-1.6 0.2,-2.5 -0.2,-0.9 -0.8,-1.5 -1.5,-2 0.3,-0.8 0.9,0.4 1.3,-0.1 -1.2,-0.5 -1.7,-1.3 -1.7,-3.1 l 0.3,0.1 c -0.7,-1.8 -1.1,-3.7 -1.3,-5.7 -0.1,-2.3 -0.5,-4.5 -1,-6.7 l -1,0.8 c -0.2,-0.7 -0.2,-1.5 0,-2.2 -2.2,-0.6 1.2,3.3 -1.2,2.8 0.9,-1.2 0,-3.2 -0.7,-5.1 -0.7,-1.9 -1.6,-3.7 -0.6,-4.8 -0.8,-1.7 -1,1.1 -1.8,-0.5 l 0.4,-0.8 h -1.1 c -0.2,-0.4 -0.2,-0.9 -0.1,-1.4 0.1,-0.5 0.4,-0.9 0.8,-1.2 0,0.3 0.6,0.7 0.7,0.9 0,-1.8 -2.5,-3.7 -2.5,-4.3 l 0.5,1.8 -1.4,-1.9 c -0.3,-0.3 -0.5,-0.7 -0.7,-1 -0.4,-0.8 -1,-1.5 -1.6,-2.2 -0.7,-0.7 -1.4,-1.4 -2.2,-2 l -0.8,-0.2 c -1.4,-1.2 -1.4,-1.6 -1.3,-1.7 0.2,-0.2 0.4,-0.2 -0.6,-1.5 l 0.3,0.2 c -1.3,-1 -1.8,-2.3 -1,-2.5 0.3,0.6 1.2,0.9 2,1.3 0.8,0.3 1.4,0.8 2,1.5 -0.1,-0.5 -0.3,-0.9 -0.6,-1.2 -0.6,-0.7 -1.2,-1.4 -1.6,-2.2 l 1.7,1.4 c -0.6,-0.9 -1,-1.5 0.2,-1.4 -0.2,0.3 0.5,0.8 1,1.4 0.6,0.4 1,1 1.2,1.6 2.1,1.5 2.1,1 2.5,0.8 0.4,-0.3 1,-0.5 1.9,1.2 0.4,-2.5 -2.5,-1.9 -2.2,-2.4 -0.5,-0.5 -0.6,-1 -0.2,-1.3 0.2,-0.1 0.5,-0.2 0.8,-0.3 0.3,0 0.6,0 0.8,0.1 0.6,0.1 1.1,1.1 1.8,2 0.6,0.9 0.8,1.8 2.8,1.9 -0.4,0 -0.4,0.2 -0.7,0 1.2,0.8 2.5,-0.7 4.1,0.5 1,-1.5 2.1,0.2 2.4,-1.8 -1,0.1 -2.1,0.3 -3.1,0.3 1.8,-0.4 3.5,-2.5 6.4,-1.5 -0.5,0.5 -1,1 -1.7,1.2 0.8,0.6 1.6,-0.4 2.5,0.2 -0.2,2 -3.8,0.5 -5.8,1.9 0.9,0.9 3.7,-1.3 2.7,0.8 1.4,-2.7 3.5,0.4 5.8,-1.9 v 1.2 c 0.5,-0.4 1.1,-0.7 1.8,-0.8 l -1.1,1.7 c 1.8,-1.4 3.8,0.9 5.6,0 -3.9,0.5 -1,-1.3 -2.7,-2.1 0.8,-0.5 1.7,-0.6 2.5,-0.5 l -0.4,-8.8 c -1.5,-0.7 -1.4,-3.2 -5.1,-2.9 0.7,-0.2 2.5,0.8 1.4,1.3 -1,-0.2 -2,-0.7 -2.7,-1.4 -3.3,0.2 0.5,1.2 -0.9,2 -1.1,-1.5 -1.6,0.6 -3.1,1 v -1.2 c -0.5,-0.1 -1,-0.2 -1.5,-0.2 -0.3,0 -0.7,0 -1,0.1 -0.2,0.1 -0.3,0.2 -0.5,0.3 -0.1,0.1 -0.2,0.3 -0.3,0.5 -0.2,0.6 -0.3,1.2 -2.7,0.7 0.5,-0.6 1,-1.1 1.6,-1.7 l -2.5,0.4 v -1.4 c -2.3,0.8 -4.7,0.9 -7,0.2 1.4,0.9 1.4,2.3 -0.8,2.2 -2.4,-0.8 -0.3,-1.2 -3.6,-1.1 -0.2,-0.8 -0.2,-1.7 2.5,-0.5 -0.2,-0.4 0,-0.8 0,-1.2 -1.3,-0.4 -2.6,-0.6 -4,-0.5 -1.2,0 -1.9,0.3 -2.5,0.3 0.6,0 1.2,0.1 1.8,0.3 -0.9,0.5 -1.8,1.1 -2.7,1.8 -1.4,-0.4 -1.4,-0.8 -1.3,-1.2 -0.8,0.2 -0.7,0.7 -1.9,0.8 -1.2,-1 -3,-2 -1.4,-2.5 -1.2,0.4 -2.3,0.8 -3.3,1.2 -1.6,-0.4 -3.2,-0.9 -4.8,-1.4 -1.3,-0.2 -2.7,0 -3.9,0.7 1.9,1.4 3.5,3.1 4.9,5.1 0.7,0.4 1.3,0.9 1.9,1.4 1.8,2.5 2.1,4.8 6.9,8.2 -0.4,0.5 -0.7,1.1 -0.9,1.7 1.4,1.3 1.6,0.7 2.1,0.3 0.5,-0.4 1.2,-0.5 3.3,1.4 3.1,2.5 -1,1.2 -0.7,2.3 1.3,0.7 3.1,1.5 4.6,2.5 1.5,0.8 2.7,2.1 3.4,3.7 -1.6,-0.8 -2.6,-1.8 -3.5,-2.8 z m 23.1,18 c -0.6,0 -1.9,0 -1.8,-0.8 1.4,-0.7 1.4,0 1.8,0.8 z m 36.4,16.6 c -0.5,0.2 -0.9,-0.2 -1.3,-0.9 0.5,0.2 1,0.5 1.3,0.9 z m 106.5,18.8 c -1.1,-0.5 -0.8,-0.3 0,0 z m 2.2,0.6 c 0,0 0.1,-0.1 0.1,-0.1 0,0 0.1,-0.1 0.1,-0.1 0,0 0,-0.1 0,-0.1 0,0 0,-0.1 0,-0.1 -0.2,0.3 -0.7,0.3 -1.3,0.2 0.2,0.2 0.4,0.5 1.1,0.2 z m -158.2,-75.1 0.4,0.4 c -1,0.2 -0.8,-0.1 -0.4,-0.4 z"
   id="path120" />
	<path
   class="st2"
   d="m 242.9,240.8 c -0.1,-0.2 -0.1,-0.5 0,-0.7 -0.2,0.1 -0.3,0.3 0,0.7 z"
   id="path122" />
	<path
   class="st2"
   d="m 170.3,187.4 c -0.2,-0.1 -0.3,-0.2 -0.5,-0.2 z"
   id="path124" />
	<path
   class="st2"
   d="m 319.7,266.9 c -0.3,-0.2 -0.6,-0.5 -0.8,-0.8 -0.1,0.3 0.1,0.6 0.8,0.8 z"
   id="path126" />
	<path
   class="st2"
   d="m 368.5,258.8 -1.4,0.3 c 0.5,0 1,0.1 1.3,0.4 -0.1,-0.2 -0.4,-0.6 0.1,-0.7 z"
   id="path128" />
	<path
   class="st2"
   d="m 381.3,266.2 c 0.2,-0.2 0.5,0 0.7,-0.2 v -0.6 c -1.1,0.2 -1.7,0.6 -0.7,0.8 z"
   id="path130" />
	<path
   class="st2"
   d="m 369.8,262.9 c 0,1 1,0.7 2.1,0.5 h -0.2 c 0.3,-1.4 -0.8,-1 -1.9,-0.5 z"
   id="path132" />
	<path
   class="st2"
   d="m 372.1,263.4 c 0.3,-0.1 0.6,-0.1 0.9,0 0.1,-0.6 -0.4,-0.2 -0.9,0 z"
   id="path134" />
	<path
   class="st2"
   d="m 359.3,260 c 0.5,0.3 0.4,-1.3 0.6,-0.9 0.6,-1.3 -3.2,1.5 -0.6,0.9 z"
   id="path136" />
	<path
   class="st2"
   d="m 370.6,266.3 -0.4,-1.3 -0.6,1 z"
   id="path138" />
	<path
   class="st2"
   d="m 362.4,265.2 1.7,0.4 c 0,-0.2 0.2,-0.3 0.5,-0.4 -1.1,0 -2.2,-0.4 -2.2,0 z"
   id="path140" />
	<path
   class="st2"
   d="m 364.5,265.2 c 0.4,0.1 0.9,0 1.3,-0.2 -0.4,0 -0.8,0.1 -1.3,0.2 z"
   id="path142" />
	<path
   class="st2"
   d="m 368.3,266.7 -0.5,-0.3 -1.2,-0.1 z"
   id="path144" />
	<path
   class="st2"
   d="m 344.7,263.9 -1.8,0.2 c -0.2,0.4 0.2,0.7 0.9,0.6 0.7,-0.1 1.2,-0.3 0.9,-0.8 z"
   id="path146" />
	<path
   class="st2"
   d="m 349.9,267.8 c -0.5,-0.3 -0.5,-0.6 -0.7,-1 l -0.2,1.6 z"
   id="path148" />
	<path
   class="st2"
   d="m 344.6,267.8 c -0.2,0.4 -2.8,1 -0.4,1.1 0.2,-0.4 2,-0.6 0.4,-1.1 z"
   id="path150" />
	<path
   class="st2"
   d="m 317.7,262.2 0.4,0.1 0.4,-2.5 z"
   id="path152" />
	<path
   class="st2"
   d="m 292.4,262.6 c 2,1.2 1,-1.4 2.5,0 0.7,-0.4 -1.4,-1 -0.7,-1.4 -1.3,0.1 -1.9,-0.5 -1.8,1.4 z"
   id="path154" />
	<path
   class="st2"
   d="m 294.3,261.1 c 0.3,-0.1 0.5,-0.1 0.8,-0.2 -0.3,0 -0.6,0.1 -0.8,0.2 z"
   id="path156" />
	<path
   class="st2"
   d="m 193.5,242.8 c -0.2,0.3 -0.3,0.6 -0.6,0.9 0.3,-0.2 0.6,-0.3 0.9,-0.6 z"
   id="path158" />
	<path
   class="st2"
   d="m 195.2,244.8 h -1.7 c 0.5,0.3 0.9,0.5 1.4,0.8 0.1,-0.3 0.1,-0.7 0.3,-0.8 z"
   id="path160" />
	<path
   class="st2"
   d="m 212.8,229.5 0.3,-0.3 c 0,-0.5 -0.2,-0.7 -0.8,-1.1 z"
   id="path162" />
	<path
   class="st2"
   d="m 197.7,216.9 0.3,0.3 0.5,-1.6 z"
   id="path164" />
	<path
   class="st2"
   d="m 178.8,201.3 c 0.9,1 1.8,1.9 2.8,2.7 -2.4,-1.9 -0.6,-3.1 -2.8,-2.7 z"
   id="path166" />
</g>
</svg>
